<?xml version="1.0" encoding="utf-8"?>
<!-- Generator: Adobe Illustrator 24.0.0, SVG Export Plug-In . SVG Version: 6.00 Build 0)  -->
<svg version="1.1" id="Layer_1" xmlns="http://www.w3.org/2000/svg" xmlns:xlink="http://www.w3.org/1999/xlink" x="0px" y="0px"
	 viewBox="0 0 160.64 113.65" style="enable-background:new 0 0 160.64 113.65;" xml:space="preserve">
<style type="text/css">
	.st0{fill:#048DBD;}
	.st1{fill:#058DBF;}
	.st2{fill:#FD2635;}
	.st3{fill:#F28F18;}
	.st4{fill:#EDDD01;}
	.st5{fill:#65B039;}
</style>
<g>
	<g>
		<g>
			<path class="st0" d="M15,101.03c0-1.32-0.46-2.36-1.39-3.12c-0.92-0.77-2.61-1.5-5.07-2.19c-2.46-0.69-4.25-1.44-5.38-2.26
				c-1.61-1.15-2.41-2.66-2.41-4.53c0-1.82,0.75-3.29,2.24-4.43c1.5-1.14,3.41-1.71,5.73-1.71c1.58,0,2.99,0.3,4.23,0.91
				c1.25,0.61,2.21,1.46,2.9,2.54c0.68,1.09,1.03,2.3,1.03,3.64h-2.02c0-1.63-0.55-2.93-1.66-3.92c-1.11-0.99-2.6-1.48-4.47-1.48
				c-1.82,0-3.26,0.41-4.34,1.22c-1.08,0.81-1.61,1.87-1.61,3.18c0,1.21,0.48,2.19,1.45,2.96c0.97,0.76,2.52,1.44,4.65,2.02
				c2.13,0.58,3.75,1.19,4.84,1.81c1.1,0.63,1.92,1.37,2.48,2.24c0.55,0.87,0.83,1.9,0.83,3.08c0,1.87-0.75,3.37-2.24,4.5
				c-1.49,1.13-3.46,1.7-5.91,1.7c-1.67,0-3.21-0.3-4.61-0.9c-1.4-0.6-2.46-1.44-3.18-2.51c-0.72-1.08-1.08-2.31-1.08-3.7h2.01
				c0,1.67,0.63,3,1.88,3.96c1.25,0.97,2.91,1.45,4.99,1.45c1.85,0,3.33-0.41,4.45-1.22C14.44,103.46,15,102.38,15,101.03z"/>
			<path class="st0" d="M20.77,84.13c0-0.37,0.12-0.68,0.36-0.93c0.24-0.25,0.56-0.38,0.98-0.38c0.41,0,0.74,0.13,0.99,0.38
				c0.24,0.25,0.37,0.56,0.37,0.93c0,0.37-0.12,0.67-0.37,0.92c-0.25,0.25-0.57,0.37-0.99,0.37c-0.41,0-0.74-0.13-0.98-0.37
				C20.89,84.8,20.77,84.5,20.77,84.13z M23.07,106.87h-1.96V89.22h1.96V106.87z"/>
			<path class="st0" d="M31.41,84.71v4.52h3.65v1.6h-3.65v11.77c0,0.98,0.18,1.71,0.53,2.19c0.35,0.48,0.94,0.72,1.77,0.72
				c0.33,0,0.85-0.05,1.58-0.16l0.08,1.58c-0.51,0.18-1.21,0.28-2.09,0.28c-1.34,0-2.31-0.39-2.92-1.17
				c-0.61-0.78-0.91-1.92-0.91-3.43V90.82H26.2v-1.6h3.25v-4.52H31.41z"/>
			<path class="st0" d="M42.14,84.71v4.52h3.65v1.6h-3.65v11.77c0,0.98,0.18,1.71,0.53,2.19c0.35,0.48,0.94,0.72,1.77,0.72
				c0.33,0,0.85-0.05,1.58-0.16l0.08,1.58c-0.51,0.18-1.21,0.28-2.09,0.28c-1.34,0-2.31-0.39-2.92-1.17
				c-0.61-0.78-0.91-1.92-0.91-3.43V90.82h-3.25v-1.6h3.25v-4.52H42.14z"/>
			<path class="st0" d="M49.72,84.13c0-0.37,0.12-0.68,0.36-0.93c0.24-0.25,0.56-0.38,0.98-0.38s0.74,0.13,0.99,0.38
				c0.24,0.25,0.37,0.56,0.37,0.93c0,0.37-0.12,0.67-0.37,0.92c-0.24,0.25-0.57,0.37-0.99,0.37s-0.74-0.13-0.98-0.37
				C49.84,84.8,49.72,84.5,49.72,84.13z M52.02,106.87h-1.96V89.22h1.96V106.87z"/>
			<path class="st0" d="M59.18,89.22l0.07,3.02c0.66-1.09,1.49-1.92,2.48-2.49c0.99-0.57,2.08-0.86,3.28-0.86
				c1.89,0,3.3,0.53,4.22,1.6c0.92,1.07,1.39,2.66,1.4,4.79v11.58h-1.94V95.27c-0.01-1.58-0.35-2.75-1-3.52
				c-0.66-0.77-1.71-1.16-3.16-1.16c-1.21,0-2.27,0.38-3.2,1.13c-0.93,0.75-1.62,1.78-2.06,3.06v12.08h-1.94V89.22H59.18z"/>
			<path class="st0" d="M93.26,104.05c-0.7,0.99-1.79,1.76-3.27,2.32c-1.48,0.55-3.14,0.83-4.98,0.83c-1.86,0-3.51-0.45-4.96-1.34
				c-1.45-0.89-2.57-2.15-3.36-3.78c-0.79-1.63-1.2-3.5-1.21-5.61v-3c0-3.29,0.83-5.9,2.5-7.8c1.66-1.91,3.9-2.86,6.7-2.86
				c2.45,0,4.41,0.62,5.9,1.87c1.49,1.25,2.38,2.96,2.66,5.14h-2.01c-0.29-1.74-1-3.07-2.13-3.97c-1.13-0.9-2.6-1.35-4.41-1.35
				c-2.22,0-3.97,0.79-5.27,2.37c-1.29,1.58-1.94,3.8-1.94,6.67v2.81c0,1.8,0.31,3.4,0.92,4.79c0.61,1.39,1.49,2.46,2.64,3.22
				c1.15,0.76,2.47,1.14,3.95,1.14c1.73,0,3.21-0.27,4.45-0.82c0.8-0.36,1.4-0.78,1.79-1.26V97.3h-6.38v-1.7h8.38V104.05z"/>
			<path class="st0" d="M106.65,90.89c-0.41-0.07-0.85-0.11-1.32-0.11c-1.22,0-2.25,0.34-3.09,1.02c-0.84,0.68-1.44,1.67-1.8,2.96
				v12.12h-1.94V89.22h1.91l0.03,2.8c1.03-2.09,2.69-3.13,4.97-3.13c0.54,0,0.97,0.07,1.29,0.21L106.65,90.89z"/>
			<path class="st0" d="M108.33,97.79c0-1.7,0.33-3.22,0.99-4.58c0.66-1.36,1.59-2.42,2.79-3.17c1.2-0.75,2.56-1.13,4.08-1.13
				c2.35,0,4.25,0.82,5.71,2.47c1.46,1.65,2.18,3.83,2.18,6.55v0.41c0,1.71-0.33,3.24-0.99,4.61c-0.66,1.36-1.58,2.42-2.78,3.15
				c-1.2,0.74-2.56,1.11-4.09,1.11c-2.34,0-4.24-0.82-5.7-2.47c-1.46-1.65-2.19-3.83-2.19-6.55V97.79z M110.28,98.32
				c0,2.11,0.55,3.84,1.64,5.19c1.09,1.35,2.52,2.03,4.3,2.03c1.76,0,3.19-0.68,4.28-2.03c1.09-1.35,1.64-3.14,1.64-5.36v-0.37
				c0-1.35-0.25-2.58-0.75-3.7c-0.5-1.12-1.2-1.99-2.1-2.6c-0.9-0.62-1.94-0.92-3.1-0.92c-1.74,0-3.16,0.68-4.26,2.05
				c-1.1,1.36-1.65,3.15-1.65,5.36V98.32z"/>
			<path class="st0" d="M139.46,104.64c-1.17,1.71-3.05,2.56-5.63,2.56c-1.88,0-3.31-0.55-4.29-1.64c-0.98-1.09-1.48-2.71-1.5-4.85
				V89.22h1.94v11.24c0,3.36,1.36,5.04,4.08,5.04c2.83,0,4.61-1.17,5.36-3.5V89.22h1.96v17.64h-1.89L139.46,104.64z"/>
			<path class="st0" d="M160.64,98.23c0,2.75-0.61,4.93-1.83,6.55c-1.22,1.61-2.85,2.42-4.89,2.42c-2.41,0-4.26-0.85-5.54-2.54v9
				h-1.94V89.22h1.81l0.1,2.5c1.27-1.88,3.11-2.82,5.53-2.82c2.11,0,3.76,0.8,4.97,2.4c1.2,1.6,1.8,3.82,1.8,6.65V98.23z
				 M158.68,97.88c0-2.25-0.46-4.03-1.39-5.33c-0.92-1.3-2.21-1.96-3.86-1.96c-1.2,0-2.22,0.29-3.08,0.87
				c-0.86,0.58-1.52,1.41-1.97,2.51v8.46c0.47,1.01,1.14,1.78,2.01,2.31c0.87,0.53,1.9,0.8,3.08,0.8c1.64,0,2.92-0.66,3.84-1.97
				C158.22,102.27,158.68,100.37,158.68,97.88z"/>
		</g>
	</g>
	<g>
		<path class="st1" d="M90.94,4.78c0,0,2.09-1.44-0.92-4.06c0,0-3.01-2.35-6.41,1.44l-28.4,28.39c0,0-4.32,6.15,0.91,11.91
			l11.78,11.65c0,0,6.02,5.1,12.56-1.7l2.75-2.75c0,0,1.96-2.75-0.79-6.15L69.61,30.69c0,0-3.53-1.96,0.65-5.24L90.94,4.78z"/>
		<g>
			<path class="st2" d="M77.43,25.45c0,0,10.77,1.67,14.22,18.16L78.51,30.85C78.51,30.85,75.96,28.6,77.43,25.45z"/>
			<path class="st2" d="M91.65,47.73c0,0,0.4,6.77-1.76,11.68L76.98,72.66c0,0-3.57,3.24-6.61,0.49c0,0-3.14-2.26,0.98-5.2
				L91.65,47.73z"/>
			<path class="st3" d="M88.23,18.49c0,0-5.5-0.79-10.8,6.97c0,0,10.68,1.86,14.22,18.16c0,0,1.91,2.22,0,4.12
				c0,0,0.6,5.89-1.76,11.68l10.6-10.7C100.5,48.72,86.95,37.33,88.23,18.49z"/>
			<path class="st4" d="M88.23,18.49c0,0,3.34,0.2,5.59,2.45l8.24,8.24c0,0,2.45,8.83-0.69,18.55l-0.88,0.98
				C100.5,48.72,86.76,37.63,88.23,18.49z"/>
			<path class="st5" d="M102.07,29.18c0,0,6.08,5.18,5.3,9.75c0,0,0.49,3.4-5.99,8.79C101.38,47.73,104.23,39.98,102.07,29.18z"/>
		</g>
	</g>
</g>
</svg>
